<?xml version="1.0" encoding="UTF-8"?>
<!DOCTYPE svg PUBLIC "-//W3C//DTD SVG 1.1//EN" "http://www.w3.org/Graphics/SVG/1.1/DTD/svg11.dtd">
<!-- Creator: CorelDRAW -->
<svg xmlns="http://www.w3.org/2000/svg" xml:space="preserve" width="210mm" height="297mm" style="shape-rendering:geometricPrecision; text-rendering:geometricPrecision; image-rendering:optimizeQuality; fill-rule:evenodd; clip-rule:evenodd"
viewBox="0 0 210 297"
 xmlns:xlink="http://www.w3.org/1999/xlink">
 <defs>
  <style type="text/css">
   <![CDATA[
    .fil0 {fill:#2F63A4;fill-rule:nonzero}
    .fil2 {fill:#4BB033;fill-rule:nonzero}
    .fil1 {fill:#EF9B11;fill-rule:nonzero}
   ]]>
  </style>
 </defs>
 <g id="Layer_x0020_1">
  <metadata id="CorelCorpID_0Corel-Layer"/>
  <path class="fil0" d="M87.5044 114.637c0,0.2569 -0.0485,0.4834 -0.1459,0.6801 -0.0971,0.1965 -0.2281,0.3585 -0.3923,0.4856 -0.1945,0.1525 -0.4029,0.2608 -0.6251,0.3245 -0.2223,0.0632 -0.5094,0.0952 -0.8613,0.0952l-1.4829 0 0 -5.1702 1.3706 0c0.368,0 0.6439,0.0123 0.8277,0.0367 0.184,0.0244 0.3603,0.0816 0.5294,0.1721 0.1849,0.0996 0.3204,0.2299 0.4058,0.3911 0.0857,0.1611 0.1286,0.3505 0.1286,0.5683 0,0.2434 -0.0643,0.4613 -0.1927,0.6537 -0.1285,0.1925 -0.3061,0.343 -0.5328,0.4518l0 0.0276c0.3085,0.0832 0.5475,0.2354 0.717,0.4562 0.1693,0.2209 0.2539,0.4968 0.2539,0.8273zm-0.9634 -2.3168c0,-0.1248 -0.0208,-0.2328 -0.0623,-0.3241 -0.0417,-0.0913 -0.1086,-0.1636 -0.2011,-0.2166 -0.111,-0.0625 -0.2345,-0.1006 -0.3708,-0.1145 -0.1364,-0.0137 -0.3246,-0.0207 -0.565,-0.0207l-0.6586 0 0 1.5113 0.7799 0c0.2148,0 0.3732,-0.0111 0.475,-0.0328 0.1015,-0.022 0.2065,-0.0675 0.3151,-0.1371 0.104,-0.0671 0.178,-0.1547 0.2219,-0.2633 0.0439,-0.1089 0.0659,-0.2426 0.0659,-0.4022zm0.2456 2.342c0,-0.1935 -0.0278,-0.3531 -0.0834,-0.4788 -0.0554,-0.1258 -0.1677,-0.2324 -0.3365,-0.3196 -0.1089,-0.0581 -0.2273,-0.0947 -0.3559,-0.1109 -0.1284,-0.0161 -0.3105,-0.0242 -0.5465,-0.0242l-0.7811 0 0 1.9017 0.5589 0c0.3008,0 0.538,-0.0137 0.7115,-0.0413 0.1735,-0.0278 0.3262,-0.0866 0.4582,-0.1765 0.1296,-0.0899 0.2243,-0.1919 0.2846,-0.3059 0.0602,-0.1143 0.0902,-0.2622 0.0902,-0.4445z"/>
  <path class="fil0" d="M91.3581 114.284c0,0.6529 -0.1575,1.1569 -0.4729,1.512 -0.3152,0.3554 -0.7347,0.533 -1.2584,0.533 -0.5401,0 -0.9649,-0.1834 -1.2744,-0.5504 -0.3093,-0.3667 -0.4641,-0.8651 -0.4641,-1.4946 0,-0.6479 0.1594,-1.1513 0.478,-1.5103 0.3188,-0.3585 0.7389,-0.5381 1.2605,-0.5381 0.5237,0 0.9432,0.1789 1.2584,0.5366 0.3154,0.3576 0.4729,0.8615 0.4729,1.5118zm-0.6738 0c0,-0.5008 -0.0915,-0.873 -0.2749,-1.1164 -0.1831,-0.2434 -0.4441,-0.3651 -0.7826,-0.3651 -0.341,0 -0.6036,0.1217 -0.788,0.3651 -0.1845,0.2434 -0.2767,0.6156 -0.2767,1.1164 0,0.4848 0.0922,0.8524 0.2767,1.1027 0.1844,0.2503 0.447,0.3754 0.788,0.3754 0.3362,0 0.5966,-0.1227 0.781,-0.3688 0.1844,-0.2454 0.2765,-0.6154 0.2765,-1.1093z"/>
  <path class="fil0" d="M94.186 115.808c-0.0532,0.0393 -0.1244,0.0943 -0.2134,0.1648 -0.0893,0.0705 -0.1755,0.1267 -0.2588,0.1685 -0.1156,0.0602 -0.2273,0.1063 -0.3349,0.1388 -0.1076,0.0324 -0.2587,0.0486 -0.453,0.0486 -0.1598,0 -0.3115,-0.0301 -0.455,-0.0901 -0.1433,-0.0603 -0.2694,-0.1445 -0.3782,-0.2535 -0.1042,-0.1064 -0.1876,-0.2374 -0.2501,-0.3936 -0.0625,-0.1561 -0.0937,-0.3208 -0.0937,-0.4943 0,-0.2684 0.0568,-0.4967 0.1703,-0.6854 0.1132,-0.1883 0.2926,-0.3383 0.538,-0.4491 0.2174,-0.0993 0.4743,-0.1683 0.7706,-0.2066 0.2962,-0.0381 0.6156,-0.0664 0.9582,-0.085l0 -0.1265c0,-0.1552 -0.0232,-0.2803 -0.0696,-0.3757 -0.0463,-0.0951 -0.111,-0.1684 -0.1944,-0.2204 -0.0834,-0.0538 -0.1852,-0.0897 -0.3057,-0.1074 -0.1205,-0.0176 -0.2442,-0.0264 -0.3716,-0.0264 -0.1505,0 -0.3277,0.0233 -0.5314,0.0695 -0.2037,0.0464 -0.4075,0.1137 -0.6114,0.2013l-0.038 0 0 -0.661c0.1207,-0.0346 0.2933,-0.0725 0.5185,-0.1142 0.225,-0.0415 0.4477,-0.0623 0.6682,-0.0623 0.2667,0 0.4918,0.0208 0.675,0.0625 0.1832,0.0417 0.348,0.1171 0.4941,0.2259 0.1415,0.1064 0.2471,0.244 0.3168,0.4133 0.0696,0.1689 0.1044,0.3752 0.1044,0.6182l0 2.6537 -0.6549 0 0 -0.4136zm0 -0.5417l0 -1.0662c-0.155,0.0139 -0.3512,0.0328 -0.5882,0.0568 -0.2374,0.0242 -0.4289,0.058 -0.5746,0.1015 -0.1735,0.0526 -0.3171,0.1336 -0.4304,0.2425 -0.1134,0.109 -0.17,0.261 -0.17,0.4556 0,0.2205 0.0624,0.3865 0.1873,0.4992 0.125,0.1122 0.3077,0.1684 0.5486,0.1684 0.2059,0 0.3921,-0.0441 0.5587,-0.1324 0.1667,-0.0884 0.3229,-0.1968 0.4686,-0.3254z"/>
  <path class="fil0" d="M97.811 113.054l-0.0344 0c-0.0487,-0.0139 -0.1,-0.0226 -0.1542,-0.0263 -0.0542,-0.0036 -0.1193,-0.0052 -0.1955,-0.0052 -0.1753,0 -0.3494,0.0381 -0.5225,0.1141 -0.1729,0.0764 -0.3368,0.1894 -0.4913,0.3393l0 2.7456 -0.6549 0 0 -3.879 0.6549 0 0 0.5765c0.2376,-0.2108 0.4445,-0.3595 0.621,-0.4464 0.1766,-0.0868 0.3479,-0.1301 0.5139,-0.1301 0.0669,0 0.1171,0.0016 0.1505,0.0052 0.0335,0.0036 0.071,0.0088 0.1125,0.0159l0 0.6904z"/>
  <path class="fil0" d="M101.277 116.222l-0.6549 0 0 -0.3963c-0.1022,0.0856 -0.1904,0.1561 -0.2646,0.2118 -0.0741,0.0554 -0.1612,0.1066 -0.261,0.1525 -0.0929,0.0441 -0.1892,0.0782 -0.289,0.1026 -0.0997,0.0241 -0.2158,0.0365 -0.3479,0.0365 -0.2112,0 -0.4067,-0.0442 -0.5866,-0.1319 -0.1798,-0.0882 -0.3324,-0.2166 -0.4577,-0.3852 -0.1275,-0.1713 -0.2263,-0.3827 -0.2958,-0.6338 -0.0697,-0.2511 -0.1044,-0.54 -0.1044,-0.8663 0,-0.3401 0.044,-0.6348 0.1322,-0.8836 0.0881,-0.2487 0.21,-0.4657 0.3655,-0.6509 0.1415,-0.1689 0.3126,-0.3015 0.5133,-0.3976 0.2007,-0.0959 0.4113,-0.1441 0.6317,-0.1441 0.1951,0 0.3646,0.0216 0.5082,0.0643 0.1439,0.043 0.2959,0.1094 0.4561,0.1995l0 -1.6806 0.6549 0 0 5.4031zm-0.6549 -0.945l0 -2.2358c-0.1625,-0.0758 -0.3083,-0.1284 -0.4371,-0.1574 -0.129,-0.0288 -0.2688,-0.0435 -0.4197,-0.0435 -0.3368,0 -0.6004,0.1253 -0.7908,0.3756 -0.1904,0.2502 -0.2857,0.612 -0.2857,1.0847 0,0.4544 0.0731,0.8025 0.2194,1.0432 0.1463,0.2414 0.3809,0.3618 0.7037,0.3618 0.1719,0 0.3448,-0.0385 0.5191,-0.1157 0.1741,-0.0772 0.3377,-0.1813 0.4911,-0.3129z"/>
  <path class="fil0" d="M107.637 114.284c0,0.6529 -0.1574,1.1569 -0.4726,1.512 -0.3154,0.3554 -0.7349,0.533 -1.2589,0.533 -0.54,0 -0.9648,-0.1834 -1.2741,-0.5504 -0.3093,-0.3667 -0.4641,-0.8651 -0.4641,-1.4946 0,-0.6479 0.1592,-1.1513 0.478,-1.5103 0.3188,-0.3585 0.739,-0.5381 1.2602,-0.5381 0.524,0 0.9435,0.1789 1.2589,0.5366 0.3152,0.3576 0.4726,0.8615 0.4726,1.5118zm-0.6739 0c0,-0.5008 -0.0915,-0.873 -0.2747,-1.1164 -0.1831,-0.2434 -0.4441,-0.3651 -0.7829,-0.3651 -0.3407,0 -0.6035,0.1217 -0.7879,0.3651 -0.1844,0.2434 -0.2765,0.6156 -0.2765,1.1164 0,0.4848 0.0921,0.8524 0.2765,1.1027 0.1844,0.2503 0.4472,0.3754 0.7879,0.3754 0.3364,0 0.5967,-0.1227 0.7811,-0.3688 0.1844,-0.2454 0.2765,-0.6154 0.2765,-1.1093z"/>
  <path class="fil0" d="M110.345 111.436l-0.0347 0c-0.0576,-0.0203 -0.1405,-0.0403 -0.249,-0.0594 -0.1085,-0.0191 -0.2052,-0.0289 -0.2906,-0.0289 -0.2743,0 -0.4697,0.0623 -0.586,0.1869 -0.1165,0.1245 -0.1747,0.3496 -0.1747,0.6754l0 0.1329 1.0766 0 0 0.5476 -1.0579 0 0 3.3314 -0.6549 0 0 -3.3314 -0.4407 0 0 -0.5476 0.4407 0 0 -0.1289c0,-0.4682 0.1122,-0.8243 0.3365,-1.0677 0.2245,-0.2435 0.5459,-0.3652 0.9646,-0.3652 0.1206,0 0.2385,0.0063 0.3541,0.0187 0.1159,0.0128 0.221,0.0273 0.316,0.0434l0 0.5928z"/>
  <polygon class="fil0" points="112.84,116.222 112.84,111.052 116.077,111.052 116.077,111.663 113.527,111.663 113.527,113.08 115.901,113.08 115.901,113.69 113.527,113.69 113.527,115.611 116.077,115.611 116.077,116.222 "/>
  <path class="fil0" d="M119.802 116.222l-0.655 0 0 -0.431c-0.201,0.1759 -0.3917,0.3095 -0.5723,0.401 -0.1803,0.0913 -0.3814,0.1371 -0.6035,0.1371 -0.1688,0 -0.3276,-0.0281 -0.4765,-0.0835 -0.1492,-0.0556 -0.2794,-0.1432 -0.3902,-0.2638 -0.111,-0.1203 -0.1973,-0.2718 -0.2585,-0.455 -0.0613,-0.1827 -0.0919,-0.4048 -0.0919,-0.6665l0 -2.5173 0.6549 0 0 2.2071c0,0.2057 0.0075,0.3764 0.0226,0.5119 0.0149,0.1354 0.049,0.254 0.1019,0.3554 0.0533,0.0998 0.1254,0.1725 0.2167,0.2189 0.091,0.0461 0.222,0.0693 0.3929,0.0693 0.1592,0 0.3289,-0.0448 0.5089,-0.1349 0.1801,-0.0898 0.3449,-0.2005 0.495,-0.3318l0 -2.8959 0.655 0 0 3.879z"/>
  <path class="fil0" d="M122.797 113.054l-0.0347 0c-0.0483,-0.0139 -0.0998,-0.0226 -0.154,-0.0263 -0.0542,-0.0036 -0.1195,-0.0052 -0.1956,-0.0052 -0.1754,0 -0.3495,0.0381 -0.5223,0.1141 -0.1732,0.0764 -0.337,0.1894 -0.4916,0.3393l0 2.7456 -0.6549 0 0 -3.879 0.6549 0 0 0.5765c0.2377,-0.2108 0.4446,-0.3595 0.6211,-0.4464 0.1765,-0.0868 0.348,-0.1301 0.5141,-0.1301 0.0669,0 0.1168,0.0016 0.1503,0.0052 0.0335,0.0036 0.0711,0.0088 0.1127,0.0159l0 0.6904z"/>
  <path class="fil0" d="M126.47 114.284c0,0.6529 -0.1576,1.1569 -0.4729,1.512 -0.3152,0.3554 -0.7347,0.533 -1.2587,0.533 -0.5398,0 -0.9646,-0.1834 -1.2739,-0.5504 -0.3096,-0.3667 -0.4643,-0.8651 -0.4643,-1.4946 0,-0.6479 0.1592,-1.1513 0.478,-1.5103 0.3188,-0.3585 0.7387,-0.5381 1.2602,-0.5381 0.524,0 0.9435,0.1789 1.2587,0.5366 0.3153,0.3576 0.4729,0.8615 0.4729,1.5118zm-0.6738 0c0,-0.5008 -0.0915,-0.873 -0.2749,-1.1164 -0.183,-0.2434 -0.4439,-0.3651 -0.7829,-0.3651 -0.3407,0 -0.6033,0.1217 -0.7879,0.3651 -0.1841,0.2434 -0.2765,0.6156 -0.2765,1.1164 0,0.4848 0.0924,0.8524 0.2765,1.1027 0.1846,0.2503 0.4472,0.3754 0.7879,0.3754 0.3366,0 0.5967,-0.1227 0.7813,-0.3688 0.1842,-0.2454 0.2765,-0.6154 0.2765,-1.1093z"/>
  <path class="fil0" d="M130.4 114.18c0,0.6457 -0.1548,1.1601 -0.4647,1.543 -0.3098,0.3831 -0.7013,0.5747 -1.1749,0.5747 -0.1926,0 -0.3631,-0.0222 -0.5116,-0.0659 -0.1485,-0.0439 -0.3005,-0.1124 -0.4558,-0.2049l0 1.6246 -0.655 0 0 -5.3084 0.655 0 0 0.4066c0.1622,-0.1457 0.3427,-0.2678 0.541,-0.3661 0.1985,-0.0984 0.415,-0.1478 0.6493,-0.1478 0.4455,0 0.7929,0.176 1.0426,0.528 0.2493,0.3518 0.3741,0.8236 0.3741,1.4162zm-0.6739 0.0746c0,-0.4419 -0.0708,-0.7851 -0.2124,-1.0291 -0.1417,-0.2441 -0.3716,-0.3662 -0.6898,-0.3662 -0.1858,0 -0.3653,0.0411 -0.538,0.1231 -0.1733,0.0824 -0.3374,0.1882 -0.4929,0.3178l0 2.1965c0.1716,0.0834 0.3185,0.1401 0.4404,0.1703 0.1222,0.03 0.2618,0.0449 0.4198,0.0449 0.3392,0 0.6025,-0.1237 0.7908,-0.3712 0.1882,-0.2476 0.2821,-0.6096 0.2821,-1.0861z"/>
  <path class="fil0" d="M132.745 116.31c-0.6186,0 -1.0988,-0.1739 -1.4408,-0.5223 -0.3418,-0.3482 -0.5124,-0.8425 -0.5124,-1.4837 0,-0.6316 0.1656,-1.1341 0.4973,-1.5078 0.3315,-0.3735 0.7652,-0.5606 1.3007,-0.5606 0.2413,0 0.4545,0.0349 0.6401,0.1044 0.1854,0.0695 0.348,0.1783 0.4868,0.3265 0.1395,0.1481 0.2461,0.3297 0.32,0.5436 0.0744,0.2146 0.1115,0.4768 0.1115,0.7872l0 0.3542 -2.6953 0c0,0.4514 0.1137,0.796 0.3408,1.0344 0.2275,0.2381 0.5417,0.3575 0.9431,0.3575 0.1436,0 0.2845,-0.0164 0.4225,-0.049 0.1379,-0.0328 0.2626,-0.0748 0.374,-0.1259 0.1183,-0.0538 0.2181,-0.1057 0.2991,-0.1558 0.0812,-0.05 0.1485,-0.0972 0.2019,-0.1417l0.0383 0 0 0.7127c-0.0766,0.0301 -0.1717,0.0678 -0.285,0.1131 -0.1138,0.0448 -0.2158,0.0802 -0.3059,0.1056 -0.1275,0.0348 -0.2428,0.0615 -0.3459,0.0798 -0.103,0.0186 -0.2334,0.0278 -0.3908,0.0278zm0.7672 -2.4558c-0.0049,-0.1772 -0.0256,-0.3297 -0.0629,-0.4578 -0.0372,-0.1282 -0.0905,-0.2364 -0.1602,-0.3249 -0.0767,-0.0977 -0.1749,-0.1725 -0.2946,-0.2237 -0.1197,-0.0512 -0.2676,-0.0768 -0.444,-0.0768 -0.1742,0 -0.3224,0.0264 -0.4442,0.0786 -0.1222,0.0524 -0.233,0.1288 -0.3328,0.2288 -0.0977,0.1027 -0.1719,0.216 -0.223,0.3407 -0.0512,0.1247 -0.0838,0.2697 -0.0976,0.4351l2.0593 0z"/>
  <path class="fil0" d="M136.971 115.808c-0.0532,0.0393 -0.1246,0.0943 -0.2137,0.1648 -0.089,0.0705 -0.1753,0.1267 -0.2585,0.1685 -0.1157,0.0602 -0.2273,0.1063 -0.3351,0.1388 -0.1076,0.0324 -0.2587,0.0486 -0.453,0.0486 -0.1598,0 -0.3113,-0.0301 -0.4548,-0.0901 -0.1435,-0.0603 -0.2696,-0.1445 -0.3784,-0.2535 -0.1042,-0.1064 -0.1875,-0.2374 -0.25,-0.3936 -0.0626,-0.1561 -0.0936,-0.3208 -0.0936,-0.4943 0,-0.2684 0.0566,-0.4967 0.17,-0.6854 0.1133,-0.1883 0.2928,-0.3383 0.5381,-0.4491 0.2176,-0.0993 0.4745,-0.1683 0.7707,-0.2066 0.2961,-0.0381 0.6155,-0.0664 0.9583,-0.085l0 -0.1265c0,-0.1552 -0.0234,-0.2803 -0.0696,-0.3757 -0.0463,-0.0951 -0.1112,-0.1684 -0.1946,-0.2204 -0.0835,-0.0538 -0.1852,-0.0897 -0.3057,-0.1074 -0.1203,-0.0176 -0.2442,-0.0264 -0.3714,-0.0264 -0.1506,0 -0.3277,0.0233 -0.5316,0.0695 -0.2037,0.0464 -0.4075,0.1137 -0.6112,0.2013l-0.0383 0 0 -0.661c0.1207,-0.0346 0.2934,-0.0725 0.5187,-0.1142 0.2249,-0.0415 0.4476,-0.0623 0.668,-0.0623 0.2668,0 0.4919,0.0208 0.6753,0.0625 0.1832,0.0417 0.3478,0.1171 0.4941,0.2259 0.1415,0.1064 0.2471,0.244 0.3168,0.4133 0.0695,0.1689 0.1044,0.3752 0.1044,0.6182l0 2.6537 -0.6549 0 0 -0.4136zm0 -0.5417l0 -1.0662c-0.1552,0.0139 -0.3513,0.0328 -0.5884,0.0568 -0.2372,0.0242 -0.4287,0.058 -0.5743,0.1015 -0.1736,0.0526 -0.3172,0.1336 -0.4307,0.2425 -0.1133,0.109 -0.1699,0.261 -0.1699,0.4556 0,0.2205 0.0625,0.3865 0.1872,0.4992 0.1252,0.1122 0.308,0.1684 0.5486,0.1684 0.2059,0 0.3921,-0.0441 0.5587,-0.1324 0.1667,-0.0884 0.3229,-0.1968 0.4688,-0.3254z"/>
  <path class="fil0" d="M141.591 116.222l-0.655 0 0 -2.2071c0,-0.178 -0.0086,-0.344 -0.026,-0.498 -0.0173,-0.1539 -0.0501,-0.277 -0.0985,-0.3696 -0.0532,-0.0972 -0.1272,-0.1696 -0.2215,-0.2167 -0.0949,-0.0478 -0.2241,-0.0714 -0.3879,-0.0714 -0.1616,0 -0.3285,0.0433 -0.5006,0.1304 -0.1718,0.0865 -0.3395,0.1995 -0.5035,0.3379l0 2.8945 -0.6549 0 0 -3.879 0.6549 0 0 0.4309c0.1942,-0.1734 0.3861,-0.3066 0.5757,-0.3991 0.1896,-0.0925 0.3895,-0.1391 0.6001,-0.1391 0.3815,0 0.6795,0.1256 0.8947,0.3769 0.2148,0.2513 0.3225,0.6149 0.3225,1.092l0 2.5174z"/>
  <path class="fil0" d="M85.4413 124.848c-0.3748,0 -0.6932,-0.0387 -0.9558,-0.1165 -0.2625,-0.0776 -0.5092,-0.1731 -0.7405,-0.2869l0 -0.8623 0.0486 0c0.2263,0.2142 0.4826,0.3802 0.7692,0.4975 0.2863,0.1177 0.5624,0.1763 0.8279,0.1763 0.3789,0 0.6652,-0.0794 0.8593,-0.2381 0.1941,-0.1588 0.291,-0.368 0.291,-0.6278 0,-0.2063 -0.0506,-0.3742 -0.1519,-0.5041 -0.1012,-0.1298 -0.2622,-0.2259 -0.4831,-0.2886 -0.1596,-0.0461 -0.3053,-0.0846 -0.4373,-0.1145 -0.1318,-0.0302 -0.2972,-0.0707 -0.4961,-0.1216 -0.1779,-0.0462 -0.3375,-0.1053 -0.4788,-0.177 -0.141,-0.0717 -0.2658,-0.1657 -0.3744,-0.2815 -0.1066,-0.1133 -0.1892,-0.247 -0.248,-0.401 -0.0591,-0.154 -0.0885,-0.3317 -0.0885,-0.5332 0,-0.419 0.163,-0.7704 0.4891,-1.0541 0.326,-0.2834 0.7423,-0.4254 1.2487,-0.4254 0.289,0 0.5625,0.029 0.8204,0.0869 0.2577,0.0582 0.4965,0.1404 0.7163,0.2472l0 0.8246 -0.0519 0c-0.164,-0.1516 -0.3742,-0.284 -0.6306,-0.397 -0.2563,-0.1132 -0.5253,-0.1699 -0.8072,-0.1699 -0.3188,0 -0.5764,0.0748 -0.7726,0.2243 -0.1963,0.1497 -0.2944,0.346 -0.2944,0.5896 0,0.2201 0.0574,0.3952 0.1726,0.5252 0.1151,0.1297 0.282,0.2247 0.5006,0.2849 0.1457,0.0393 0.3237,0.0841 0.5342,0.1338 0.2104,0.0498 0.3851,0.0955 0.524,0.137 0.3563,0.1089 0.6164,0.2735 0.7806,0.4934 0.1641,0.2198 0.2463,0.4909 0.2463,0.8126 0,0.2015 -0.0411,0.4004 -0.1234,0.5973 -0.082,0.1967 -0.197,0.3636 -0.3449,0.5002 -0.1667,0.1505 -0.3545,0.2662 -0.5637,0.3474 -0.2094,0.0808 -0.4713,0.1213 -0.7857,0.1213z"/>
  <path class="fil0" d="M89.0823 124.829c-0.3561,0 -0.6336,-0.101 -0.8323,-0.3031 -0.1987,-0.2023 -0.298,-0.5217 -0.298,-0.9584l0 -2.1455 -0.441 0 0 -0.5477 0.441 0 0 -1.1148 0.6549 0 0 1.1148 1.1964 0 0 0.5477 -1.1964 0 0 1.8438c0,0.1967 0.0034,0.3485 0.0102,0.4548 0.0069,0.1067 0.0335,0.2062 0.0797,0.2987 0.039,0.081 0.1026,0.1417 0.19,0.1822 0.0876,0.0405 0.2063,0.0606 0.3563,0.0606 0.1059,0 0.2085,-0.0157 0.3077,-0.0472 0.0991,-0.0316 0.1707,-0.0574 0.2144,-0.0787l0.0381 0 0 0.5826c-0.1225,0.0346 -0.2467,0.0612 -0.3726,0.081 -0.126,0.0193 -0.2422,0.0292 -0.3484,0.0292z"/>
  <path class="fil0" d="M93.3088 124.754l-0.6549 0 0 -0.4311c-0.2011,0.176 -0.392,0.3098 -0.5723,0.4011 -0.1804,0.0913 -0.3815,0.137 -0.6036,0.137 -0.1688,0 -0.3276,-0.0278 -0.4767,-0.0832 -0.1492,-0.0556 -0.2791,-0.1435 -0.3902,-0.264 -0.111,-0.1205 -0.1972,-0.2719 -0.2583,-0.455 -0.0612,-0.1826 -0.0919,-0.4049 -0.0919,-0.6664l0 -2.5175 0.6549 0 0 2.2071c0,0.2058 0.0075,0.3767 0.0224,0.5121 0.0149,0.1354 0.0492,0.2537 0.1022,0.3554 0.053,0.0996 0.1251,0.1725 0.2164,0.2187 0.091,0.0463 0.2223,0.0693 0.3929,0.0693 0.1592,0 0.3289,-0.0449 0.509,-0.1346 0.18,-0.0898 0.3451,-0.2005 0.4952,-0.3319l0 -2.8961 0.6549 0 0 3.8791z"/>
  <path class="fil0" d="M97.2357 124.754l-0.6549 0 0 -0.3964c-0.1022,0.0859 -0.1905,0.1562 -0.2646,0.2118 -0.0744,0.0557 -0.1613,0.1066 -0.261,0.1528 -0.0929,0.0439 -0.1892,0.0782 -0.289,0.1026 -0.0997,0.0239 -0.2158,0.0362 -0.348,0.0362 -0.2112,0 -0.4066,-0.0439 -0.5866,-0.1318 -0.1797,-0.088 -0.3325,-0.2166 -0.4576,-0.3855 -0.1278,-0.171 -0.2263,-0.3825 -0.2958,-0.6336 -0.0697,-0.251 -0.1046,-0.5398 -0.1046,-0.8662 0,-0.34 0.0441,-0.6346 0.1324,-0.8837 0.0881,-0.2486 0.2099,-0.4655 0.3655,-0.6509 0.1415,-0.1688 0.3126,-0.3012 0.5133,-0.3973 0.2007,-0.096 0.4113,-0.1443 0.6317,-0.1443 0.1951,0 0.3643,0.0217 0.5082,0.0645 0.1439,0.0427 0.2958,0.1092 0.4561,0.1994l0 -1.6808 0.6549 0 0 5.4032zm-0.6549 -0.9449l0 -2.236c-0.1627,-0.0757 -0.3084,-0.1281 -0.4371,-0.1571 -0.129,-0.0291 -0.2688,-0.0438 -0.4198,-0.0438 -0.3367,0 -0.6003,0.1252 -0.7907,0.3756 -0.1907,0.2503 -0.2858,0.612 -0.2858,1.0848 0,0.4546 0.0732,0.8024 0.2195,1.0434 0.1463,0.241 0.3808,0.3615 0.7037,0.3615 0.1717,0 0.3448,-0.0385 0.5189,-0.1156 0.1742,-0.0772 0.3379,-0.1816 0.4913,-0.3128z"/>
  <path class="fil0" d="M99.8569 124.842c-0.6186,0 -1.0988,-0.174 -1.4406,-0.5224 -0.3417,-0.348 -0.5126,-0.8425 -0.5126,-1.4835 0,-0.6316 0.1658,-1.1341 0.4975,-1.5079 0.3315,-0.3736 0.7652,-0.5606 1.3008,-0.5606 0.2412,0 0.4544,0.0351 0.64,0.1043 0.1854,0.0698 0.3478,0.1784 0.487,0.3267 0.1391,0.1481 0.2457,0.3295 0.3198,0.5437 0.0744,0.2144 0.1115,0.4763 0.1115,0.7869l0 0.3542 -2.6952 0c0,0.4516 0.1136,0.7962 0.3409,1.0344 0.2271,0.2384 0.5415,0.3575 0.9427,0.3575 0.1438,0 0.2847,-0.0163 0.4225,-0.0489 0.1381,-0.0327 0.2628,-0.0748 0.3742,-0.126 0.1183,-0.0536 0.2179,-0.1054 0.2991,-0.1558 0.0812,-0.0499 0.1485,-0.0971 0.202,-0.1416l0.0382 0 0 0.7127c-0.0766,0.0303 -0.1715,0.0679 -0.2851,0.1129 -0.1135,0.0451 -0.2154,0.0804 -0.3057,0.106 -0.1276,0.0346 -0.2429,0.0614 -0.3458,0.0798 -0.1032,0.0185 -0.2336,0.0276 -0.3912,0.0276zm0.7672 -2.4559c-0.0047,-0.1769 -0.0256,-0.3295 -0.0627,-0.4578 -0.0372,-0.128 -0.0905,-0.2362 -0.1602,-0.3246 -0.0767,-0.0982 -0.1749,-0.1725 -0.2944,-0.2239 -0.1197,-0.0512 -0.2678,-0.0768 -0.4443,-0.0768 -0.1741,0 -0.3222,0.0262 -0.4441,0.0786 -0.1222,0.0524 -0.233,0.1287 -0.3329,0.2289 -0.0976,0.1026 -0.1719,0.216 -0.2229,0.3405 -0.0512,0.1248 -0.0838,0.2697 -0.0975,0.4351l2.059 0z"/>
  <path class="fil0" d="M104.971 124.754l-0.6549 0 0 -2.2071c0,-0.178 -0.0087,-0.3443 -0.026,-0.498 -0.0173,-0.154 -0.0504,-0.2771 -0.0987,-0.3696 -0.0532,-0.0973 -0.127,-0.1694 -0.2217,-0.2168 -0.0945,-0.0476 -0.2237,-0.0713 -0.3877,-0.0713 -0.1616,0 -0.3282,0.0435 -0.5003,0.1303 -0.1719,0.0867 -0.3398,0.1995 -0.5036,0.3382l0 2.8943 -0.6549 0 0 -3.8791 0.6549 0 0 0.4312c0.1942,-0.1735 0.3861,-0.3067 0.5757,-0.3994 0.1894,-0.0925 0.3895,-0.139 0.5999,-0.139 0.3815,0 0.6797,0.1257 0.8947,0.3768 0.215,0.2513 0.3226,0.6152 0.3226,1.092l0 2.5175z"/>
  <path class="fil0" d="M107.063 124.829c-0.3561,0 -0.6334,-0.101 -0.8323,-0.3031 -0.1987,-0.2023 -0.2981,-0.5217 -0.2981,-0.9584l0 -2.1455 -0.4409 0 0 -0.5477 0.4409 0 0 -1.1148 0.655 0 0 1.1148 1.1966 0 0 0.5477 -1.1966 0 0 1.8438c0,0.1967 0.0034,0.3485 0.0102,0.4548 0.0069,0.1067 0.0335,0.2062 0.0796,0.2987 0.0393,0.081 0.1026,0.1417 0.1901,0.1822 0.0876,0.0405 0.2063,0.0606 0.3563,0.0606 0.1061,0 0.2085,-0.0157 0.3077,-0.0472 0.0991,-0.0316 0.1707,-0.0574 0.2144,-0.0787l0.0383 0 0 0.5826c-0.1229,0.0346 -0.2469,0.0612 -0.3729,0.081 -0.1259,0.0193 -0.2421,0.0292 -0.3483,0.0292z"/>
  <path class="fil0" d="M109.317 124.842c-0.2596,0 -0.5024,-0.0347 -0.7283,-0.104 -0.2259,-0.0691 -0.4129,-0.1433 -0.5612,-0.2219l0 -0.7321 0.0346 0c0.0554,0.0446 0.1207,0.0933 0.1957,0.1469 0.075,0.0534 0.1749,0.1094 0.2999,0.1677 0.1108,0.0512 0.2327,0.0967 0.3655,0.1362 0.1328,0.0397 0.2708,0.0592 0.4141,0.0592 0.1038,0 0.2148,-0.0121 0.3327,-0.0365 0.1179,-0.0243 0.2057,-0.0551 0.2636,-0.0924 0.0806,-0.0536 0.139,-0.1104 0.1749,-0.1709 0.0359,-0.0605 0.0536,-0.1511 0.0536,-0.2722 0,-0.1558 -0.0417,-0.2733 -0.1251,-0.3525 -0.0835,-0.079 -0.2314,-0.1451 -0.444,-0.1987 -0.0836,-0.0203 -0.1926,-0.0441 -0.327,-0.0711 -0.1346,-0.027 -0.2586,-0.0564 -0.3722,-0.0879 -0.2964,-0.0858 -0.5119,-0.218 -0.6461,-0.3976 -0.1344,-0.1789 -0.2015,-0.396 -0.2015,-0.6504 0,-0.3494 0.132,-0.634 0.3956,-0.8537 0.264,-0.2198 0.6144,-0.3298 1.0519,-0.3298 0.215,0 0.4316,0.0268 0.6491,0.0796 0.2174,0.0532 0.4002,0.1201 0.5483,0.2007l0 0.6958 -0.0345 0c-0.1662,-0.1324 -0.3512,-0.2366 -0.5549,-0.3134 -0.2042,-0.0763 -0.41,-0.1148 -0.6173,-0.1148 -0.2144,0 -0.3956,0.0451 -0.5431,0.1356 -0.1477,0.0907 -0.2212,0.2275 -0.2212,0.4107 0,0.1624 0.0433,0.2837 0.1304,0.3637 0.0868,0.0802 0.2267,0.1457 0.4187,0.1967 0.0971,0.0256 0.2054,0.0504 0.3246,0.0746 0.1193,0.0241 0.2451,0.0526 0.377,0.085 0.2873,0.0718 0.5031,0.1906 0.6479,0.3571 0.1449,0.1664 0.2173,0.3931 0.2173,0.6799 0,0.1664 -0.0331,0.3244 -0.0992,0.4735 -0.0661,0.1491 -0.1628,0.2769 -0.29,0.3831 -0.1392,0.1157 -0.2962,0.2037 -0.4711,0.2638 -0.1749,0.0602 -0.3945,0.0901 -0.6587,0.0901z"/>
  <path class="fil0" d="M116.854 122.816c0,0.6528 -0.1575,1.1569 -0.4727,1.5118 -0.3154,0.3555 -0.7347,0.533 -1.2585,0.533 -0.5402,0 -0.965,-0.1834 -1.2745,-0.5503 -0.3093,-0.3668 -0.4639,-0.8652 -0.4639,-1.4945 0,-0.648 0.1594,-1.1516 0.478,-1.5103 0.3186,-0.3587 0.7389,-0.5382 1.2604,-0.5382 0.5238,0 0.9431,0.1791 1.2585,0.5364 0.3152,0.3579 0.4727,0.8617 0.4727,1.5121zm-0.6736 0c0,-0.5009 -0.0917,-0.8729 -0.2749,-1.1165 -0.1833,-0.2432 -0.4443,-0.3652 -0.7827,-0.3652 -0.3411,0 -0.6037,0.122 -0.7881,0.3652 -0.1845,0.2436 -0.2767,0.6156 -0.2767,1.1165 0,0.4847 0.0922,0.8522 0.2767,1.1025 0.1844,0.2503 0.447,0.3754 0.7881,0.3754 0.3362,0 0.5967,-0.1226 0.7809,-0.3685 0.1846,-0.2459 0.2767,-0.6154 0.2767,-1.1094z"/>
  <path class="fil0" d="M119.563 119.968l-0.0347 0c-0.0576,-0.0202 -0.1404,-0.0401 -0.2489,-0.0593 -0.1084,-0.0191 -0.2053,-0.029 -0.2908,-0.029 -0.2742,0 -0.4697,0.0625 -0.5859,0.187 -0.1165,0.1244 -0.1748,0.3494 -0.1748,0.6753l0 0.1328 1.077 0 0 0.5477 -1.058 0 0 3.3314 -0.6549 0 0 -3.3314 -0.4409 0 0 -0.5477 0.4409 0 0 -0.1288c0,-0.4683 0.112,-0.8242 0.3365,-1.0678 0.2243,-0.2432 0.5459,-0.3652 0.9646,-0.3652 0.1203,0 0.2382,0.0065 0.3539,0.019 0.1159,0.0127 0.2211,0.027 0.316,0.0431l0 0.5929z"/>
  <polygon class="fil0" points="123.267,124.754 123.267,120.194 121.529,120.194 121.529,119.583 125.692,119.583 125.692,120.194 123.953,120.194 123.953,124.754 "/>
  <path class="fil0" d="M127.111 124.842c-0.6187,0 -1.0989,-0.174 -1.4409,-0.5224 -0.3417,-0.348 -0.5126,-0.8425 -0.5126,-1.4835 0,-0.6316 0.1658,-1.1341 0.4975,-1.5079 0.3315,-0.3736 0.7651,-0.5606 1.3008,-0.5606 0.2412,0 0.4544,0.0351 0.64,0.1043 0.1854,0.0698 0.348,0.1784 0.4869,0.3267 0.1394,0.1481 0.246,0.3295 0.3199,0.5437 0.0744,0.2144 0.1115,0.4763 0.1115,0.7869l0 0.3542 -2.6952 0c0,0.4516 0.1136,0.7962 0.3407,1.0344 0.2275,0.2384 0.5417,0.3575 0.9431,0.3575 0.1436,0 0.2845,-0.0163 0.4226,-0.0489 0.1378,-0.0327 0.2625,-0.0748 0.3739,-0.126 0.1183,-0.0536 0.2181,-0.1054 0.2991,-0.1558 0.0812,-0.0499 0.1485,-0.0971 0.2019,-0.1416l0.0383 0 0 0.7127c-0.0766,0.0303 -0.1717,0.0679 -0.285,0.1129 -0.1138,0.0451 -0.2158,0.0804 -0.3058,0.106 -0.1276,0.0346 -0.2429,0.0614 -0.346,0.0798 -0.103,0.0185 -0.2334,0.0276 -0.3907,0.0276zm0.7669 -2.4559c-0.0047,-0.1769 -0.0254,-0.3295 -0.0627,-0.4578 -0.0372,-0.128 -0.0905,-0.2362 -0.1602,-0.3246 -0.0767,-0.0982 -0.1749,-0.1725 -0.2946,-0.2239 -0.1197,-0.0512 -0.2676,-0.0768 -0.4439,-0.0768 -0.1743,0 -0.3224,0.0262 -0.4443,0.0786 -0.1222,0.0524 -0.233,0.1287 -0.3328,0.2289 -0.0977,0.1026 -0.1718,0.216 -0.223,0.3405 -0.0512,0.1248 -0.0839,0.2697 -0.0975,0.4351l2.059 0z"/>
  <path class="fil0" d="M130.716 124.842c-0.2672,0 -0.5125,-0.0409 -0.7355,-0.1232 -0.2231,-0.082 -0.4149,-0.2067 -0.575,-0.3732 -0.1604,-0.1668 -0.2847,-0.3768 -0.3729,-0.6303 -0.0885,-0.2535 -0.1324,-0.5513 -0.1324,-0.8939 0,-0.3403 0.0457,-0.6344 0.1376,-0.882 0.0917,-0.2477 0.2142,-0.4559 0.3677,-0.6251 0.1532,-0.1689 0.3444,-0.2991 0.5734,-0.3904 0.2287,-0.0914 0.4745,-0.1374 0.7371,-0.1374 0.2138,0 0.42,0.0303 0.6187,0.0905 0.1984,0.0602 0.3758,0.1296 0.5314,0.2082l0 0.7341 -0.0385 0c-0.0464,-0.0393 -0.1065,-0.0846 -0.1798,-0.1354 -0.0736,-0.0512 -0.1626,-0.1034 -0.2674,-0.1566 -0.0909,-0.0466 -0.1979,-0.0871 -0.3214,-0.1217 -0.1236,-0.0349 -0.2424,-0.0522 -0.3565,-0.0522 -0.3399,0 -0.6132,0.1277 -0.8191,0.3834 -0.2064,0.2556 -0.3096,0.6171 -0.3096,1.0846 0,0.4581 0.0998,0.8149 0.2989,1.0704 0.199,0.2557 0.4757,0.3835 0.8298,0.3835 0.2144,0 0.4181,-0.0439 0.6114,-0.132 0.1934,-0.0878 0.3647,-0.2015 0.5137,-0.3403l0.0385 0 0 0.7335c-0.0652,0.0302 -0.1464,0.0667 -0.2439,0.1094 -0.0977,0.0429 -0.1858,0.0747 -0.265,0.0955 -0.1116,0.0325 -0.2114,0.0572 -0.2996,0.0746 -0.0885,0.0173 -0.2021,0.026 -0.3416,0.026z"/>
  <path class="fil0" d="M135.506 124.754l-0.6549 0 0 -2.2071c0,-0.178 -0.0087,-0.3443 -0.026,-0.498 -0.0174,-0.154 -0.0504,-0.2771 -0.0988,-0.3696 -0.0532,-0.0973 -0.1267,-0.1694 -0.2217,-0.2168 -0.0945,-0.0476 -0.2236,-0.0713 -0.3877,-0.0713 -0.1614,0 -0.328,0.0435 -0.5001,0.1303 -0.1721,0.0867 -0.3402,0.1995 -0.5038,0.3382l0 2.8943 -0.6549 0 0 -5.4032 0.6549 0 0 1.9553c0.1942,-0.1735 0.3861,-0.3067 0.5757,-0.3994 0.1895,-0.0925 0.3896,-0.139 0.5999,-0.139 0.3815,0 0.6797,0.1257 0.8947,0.3768 0.2153,0.2513 0.3227,0.6152 0.3227,1.092l0 2.5175z"/>
  <path class="fil0" d="M139.471 124.754l-0.6549 0 0 -2.2071c0,-0.178 -0.0087,-0.3443 -0.026,-0.498 -0.0173,-0.154 -0.0502,-0.2771 -0.0986,-0.3696 -0.0531,-0.0973 -0.1271,-0.1694 -0.2216,-0.2168 -0.0949,-0.0476 -0.2239,-0.0713 -0.3879,-0.0713 -0.1616,0 -0.3285,0.0435 -0.5004,0.1303 -0.172,0.0867 -0.3397,0.1995 -0.5035,0.3382l0 2.8943 -0.655 0 0 -3.8791 0.655 0 0 0.4312c0.1942,-0.1735 0.3861,-0.3067 0.5755,-0.3994 0.1898,-0.0925 0.3897,-0.139 0.6003,-0.139 0.3813,0 0.6795,0.1257 0.8945,0.3768 0.215,0.2513 0.3226,0.6152 0.3226,1.092l0 2.5175z"/>
  <path class="fil0" d="M143.58 122.816c0,0.6528 -0.1576,1.1569 -0.4728,1.5118 -0.3153,0.3555 -0.7347,0.533 -1.2584,0.533 -0.5403,0 -0.9653,-0.1834 -1.2746,-0.5503 -0.3093,-0.3668 -0.4639,-0.8652 -0.4639,-1.4945 0,-0.648 0.1594,-1.1516 0.478,-1.5103 0.3186,-0.3587 0.739,-0.5382 1.2605,-0.5382 0.5237,0 0.9431,0.1791 1.2584,0.5364 0.3152,0.3579 0.4728,0.8617 0.4728,1.5121zm-0.6737 0c0,-0.5009 -0.0917,-0.8729 -0.2748,-1.1165 -0.1834,-0.2432 -0.4444,-0.3652 -0.7827,-0.3652 -0.3412,0 -0.604,0.122 -0.7881,0.3652 -0.1846,0.2436 -0.2767,0.6156 -0.2767,1.1165 0,0.4847 0.0921,0.8522 0.2767,1.1025 0.1841,0.2503 0.4469,0.3754 0.7881,0.3754 0.3361,0 0.5965,-0.1226 0.7808,-0.3685 0.1846,-0.2459 0.2767,-0.6154 0.2767,-1.1094z"/>
  <polygon class="fil0" points="144.916,124.754 144.261,124.754 144.261,119.35 144.916,119.35 "/>
  <path class="fil0" d="M149.066 122.816c0,0.6528 -0.1576,1.1569 -0.4729,1.5118 -0.3152,0.3555 -0.7347,0.533 -1.2586,0.533 -0.5399,0 -0.9647,-0.1834 -1.274,-0.5503 -0.3095,-0.3668 -0.4643,-0.8652 -0.4643,-1.4945 0,-0.648 0.1592,-1.1516 0.478,-1.5103 0.3188,-0.3587 0.7387,-0.5382 1.2603,-0.5382 0.5239,0 0.9434,0.1791 1.2586,0.5364 0.3153,0.3579 0.4729,0.8617 0.4729,1.5121zm-0.6738 0c0,-0.5009 -0.0915,-0.8729 -0.2749,-1.1165 -0.1829,-0.2432 -0.4439,-0.3652 -0.7828,-0.3652 -0.3408,0 -0.6034,0.122 -0.788,0.3652 -0.1841,0.2436 -0.2764,0.6156 -0.2764,1.1165 0,0.4847 0.0923,0.8522 0.2764,1.1025 0.1846,0.2503 0.4472,0.3754 0.788,0.3754 0.3365,0 0.5967,-0.1226 0.7812,-0.3685 0.1842,-0.2459 0.2765,-0.6154 0.2765,-1.1094z"/>
  <path class="fil0" d="M149.863 125.371c0.0442,0.0186 0.109,0.0438 0.1949,0.075 0.0861,0.0313 0.1834,0.0608 0.2926,0.0888 0.1207,0.0299 0.2322,0.0542 0.3343,0.073 0.1022,0.0185 0.2136,0.0278 0.3341,0.0278 0.2019,0 0.3732,-0.0264 0.5137,-0.0794 0.1406,-0.053 0.2502,-0.1268 0.329,-0.2212 0.0744,-0.0943 0.1268,-0.204 0.1568,-0.3283 0.0302,-0.1245 0.0454,-0.266 0.0454,-0.425l0 -0.3387c-0.1766,0.1529 -0.3493,0.2658 -0.5185,0.3387 -0.1697,0.0729 -0.3819,0.1092 -0.6372,0.1092 -0.4433,0 -0.796,-0.1642 -1.058,-0.4933 -0.2623,-0.3288 -0.3935,-0.8016 -0.3935,-1.4178 0,-0.3221 0.0451,-0.6074 0.1356,-0.8564 0.0907,-0.2493 0.2126,-0.4605 0.3658,-0.6344 0.146,-0.1666 0.3192,-0.2955 0.5186,-0.3855 0.1996,-0.0905 0.4061,-0.1358 0.6195,-0.1358 0.2019,0 0.3762,0.0237 0.5239,0.0713 0.1471,0.0474 0.2952,0.1151 0.4438,0.2032l0.0382 -0.1673 0.6167 0 0 3.437c0,0.6573 -0.1439,1.1397 -0.432,1.4476 -0.2877,0.3078 -0.7277,0.4617 -1.3196,0.4617 -0.1906,0 -0.3851,-0.0149 -0.5833,-0.0453 -0.1988,-0.0303 -0.3837,-0.0708 -0.5556,-0.1219l0 -0.683 0.0348 0zm2.2008 -1.6661l0 -2.1318c-0.1627,-0.0788 -0.3132,-0.1352 -0.4512,-0.1689 -0.1383,-0.0338 -0.2757,-0.0507 -0.4127,-0.0507 -0.3321,0 -0.5933,0.1217 -0.7839,0.3651 -0.1905,0.2434 -0.2856,0.5925 -0.2856,1.0465 0,0.4312 0.0728,0.7593 0.2177,0.9839 0.145,0.2252 0.3804,0.3374 0.7055,0.3374 0.1694,0 0.3442,-0.0335 0.5243,-0.1004 0.1797,-0.0671 0.3417,-0.1606 0.4859,-0.2811z"/>
  <polygon class="fil0" points="156.712,120.875 154.624,126.183 153.922,126.183 154.619,124.562 153.21,120.875 153.911,120.875 154.973,123.749 156.028,120.875 "/>
  <path class="fil0" d="M79.694 120.872l-1.7723 -1.0215 -4.6269 0 -1.7716 1.0215c1.6952,2.9451 6.7638,7.7689 12.2556,8.1854 -1.9139,-1.0718 -4.9592,-4.9234 -4.0848,-8.1854z"/>
  <path class="fil1" d="M75.9003 115.339l0 -0.0002 -0.0344 -0.06 0.0344 0.0602zm5.0449 -9.6758c0.028,2.1935 -1.784,6.7567 -5.0465,7.6307l0.0016 2.0449 2.3134 4.0071 1.7702 1.0239c1.7032,-2.9407 3.3468,-9.7422 0.9613,-14.7066z"/>
  <path class="fil2" d="M62.1017 119.815c1.8854,-1.1214 6.7432,-1.833 9.1314,0.555l1.7701 -1.0239 -0.0347 0.0604 2.3484 -4.0673 0.0012 -2.0451c-3.3981,-0.0047 -10.1098,1.973 -13.2164,6.5209z"/>
  <path class="fil0" d="M74.5236 118.179c0,-0.5991 0.4856,-1.0845 1.0851,-1.0845 0.5985,0 1.0846,0.4854 1.0846,1.0845 0,0.5994 -0.4861,1.085 -1.0846,1.085 -0.5995,0 -1.0851,-0.4856 -1.0851,-1.085z"/>
 </g>
</svg>
