<svg id="Layer_1" data-name="Layer 1" xmlns="http://www.w3.org/2000/svg" viewBox="0 0 145.19 196.52"><defs><style>.cls-1{fill:#1f73b9;}.cls-2{fill:#f7a41f;}.cls-3{fill:#73b732;}.cls-4{fill:none;}</style></defs><title>BEST_signature_vertical</title><path class="cls-1" d="M43,166.57a9.08,9.08,0,0,1-1,4.29,8.82,8.82,0,0,1-2.63,3.06,12.46,12.46,0,0,1-4.2,2,22.85,22.85,0,0,1-5.78.6H19.49V144h9.2a48.9,48.9,0,0,1,5.56.23,10.81,10.81,0,0,1,3.56,1.08,6.27,6.27,0,0,1,2.73,2.46,7.16,7.16,0,0,1,.86,3.58,6.93,6.93,0,0,1-1.29,4.12,8.64,8.64,0,0,1-3.58,2.85v.18a8.73,8.73,0,0,1,4.8,2.88,8,8,0,0,1,1.7,5.22Zm-6.44-14.63a4.65,4.65,0,0,0-.42-2.05,3.06,3.06,0,0,0-1.35-1.37,6.61,6.61,0,0,0-2.49-.72q-1.37-.13-3.79-.13H24.11v9.56h5.23a17.57,17.57,0,0,0,3.19-.21,6.79,6.79,0,0,0,2.12-.87,3.59,3.59,0,0,0,1.49-1.67,6.46,6.46,0,0,0,.44-2.54Zm1.62,14.82a7.18,7.18,0,0,0-.56-3,4.56,4.56,0,0,0-2.26-2A7.23,7.23,0,0,0,33,161a33.54,33.54,0,0,0-3.66-.15H24.11v12h3.74a33.83,33.83,0,0,0,4.77-.26,7.69,7.69,0,0,0,3.07-1.12,5.67,5.67,0,0,0,1.91-1.94A5.75,5.75,0,0,0,38.21,166.75Z"/><polygon class="cls-1" points="47.61 176.57 47.61 143.97 69.33 143.97 69.33 147.82 52.23 147.82 52.23 156.75 68.17 156.75 68.17 160.6 52.23 160.6 52.23 172.72 69.33 172.72 69.33 176.57 47.61 176.57"/><path class="cls-1" d="M84.05,177.16a24.23,24.23,0,0,1-6.42-.73,32.76,32.76,0,0,1-5-1.8v-5.43H73a16.85,16.85,0,0,0,5.17,3.12,15.54,15.54,0,0,0,5.56,1.1,9.39,9.39,0,0,0,5.77-1.5,5.15,5.15,0,0,0,.93-7.12A6.15,6.15,0,0,0,87.17,163q-1.61-.44-2.93-.72t-3.33-.77a16.52,16.52,0,0,1-3.21-1.12,9,9,0,0,1-2.52-1.77,7.6,7.6,0,0,1-1.67-2.53,8.85,8.85,0,0,1-.59-3.36,8.26,8.26,0,0,1,3.29-6.64,12.84,12.84,0,0,1,8.39-2.68,26.71,26.71,0,0,1,5.51.55,23,23,0,0,1,4.81,1.55v5.18h-.35a15.46,15.46,0,0,0-4.24-2.47,14.21,14.21,0,0,0-5.43-1.06,8.77,8.77,0,0,0-5.19,1.41,4.36,4.36,0,0,0-2,3.71,4.6,4.6,0,0,0,1.16,3.3,6.9,6.9,0,0,0,3.37,1.79q1.47.37,3.59.84t3.52.87a10,10,0,0,1,5.24,3.11,8,8,0,0,1,1.65,5.12,9.19,9.19,0,0,1-.83,3.77,8.9,8.9,0,0,1-2.32,3.15,12.32,12.32,0,0,1-3.79,2.19A15.62,15.62,0,0,1,84.05,177.16Z"/><polygon class="cls-1" points="109.06 176.57 109.06 147.82 97.4 147.82 97.4 143.97 125.34 143.97 125.34 147.82 113.69 147.82 113.69 176.57 109.06 176.57"/><path class="cls-1" d="M105.39,93.82l-8.61-5H74.32l-8.61,5c8.24,14.3,32.85,37.73,59.52,39.75C115.94,128.36,101.15,109.66,105.39,93.82Z"/><path class="cls-2" d="M111.47,20C111.61,30.61,102.81,52.77,87,57v9.93l-.17-.29L98.21,86.4l8.6,5C115.07,77.1,123.05,44.06,111.47,20Z"/><path class="cls-3" d="M20,88.68c9.16-5.45,32.75-8.9,44.35,2.7l8.6-5-.17.29,11.4-19.75V57C67.64,57,35,66.59,20,88.68Z"/><path class="cls-1" d="M80.29,80.73A5.27,5.27,0,1,1,85.55,86,5.26,5.26,0,0,1,80.29,80.73Z"/><rect class="cls-4" width="145.19" height="196.52"/></svg>