<?xml version="1.0" standalone="no"?>
<!DOCTYPE svg PUBLIC "-//W3C//DTD SVG 20010904//EN"
 "http://www.w3.org/TR/2001/REC-SVG-20010904/DTD/svg10.dtd">
<svg version="1.0" xmlns="http://www.w3.org/2000/svg"
 width="196.000000pt" height="212.000000pt" viewBox="0 0 196.000000 212.000000"
 preserveAspectRatio="xMidYMid meet">
<metadata>
Created by potrace 1.11, written by Peter Selinger 2001-2013
</metadata>
<g transform="translate(0.000000,212.000000) scale(0.100000,-0.100000)"
fill="#000000" stroke="none">
<path d="M1699 2105 c-1 -5 -3 -26 -5 -45 -17 -145 -99 -332 -202 -458 -54
-66 -162 -142 -234 -165 -14 -5 -17 -20 -16 -99 l1 -93 105 -182 c71 -123 113
-185 131 -195 14 -7 49 -27 78 -45 l52 -33 16 23 c38 54 132 335 149 447 3 19
8 46 11 60 25 122 25 391 -1 535 -14 82 -81 277 -85 250z"/>
<path d="M1030 1419 c-19 -4 -51 -10 -70 -13 -19 -3 -78 -17 -130 -31 -346
-93 -654 -285 -810 -505 l-25 -35 35 21 c101 59 370 97 500 71 121 -25 192
-54 260 -107 l35 -28 80 47 79 46 103 180 104 179 2 94 2 93 -65 -3 c-36 -1
-81 -5 -100 -9z"/>
<path d="M1156 1065 c-34 -27 -44 -81 -23 -122 34 -64 122 -66 164 -4 29 43
23 86 -18 124 -36 33 -83 34 -123 2z"/>
<path d="M970 821 c-14 -10 -46 -31 -73 -45 -55 -32 -56 -28 31 -144 143 -192
379 -387 601 -497 133 -66 236 -99 380 -120 l45 -7 -55 43 c-30 24 -68 57 -84
74 -108 110 -210 292 -232 415 -9 46 -8 160 0 185 6 17 -5 28 -72 68 l-79 47
-219 -1 c-194 0 -221 -2 -243 -18z"/>
</g>
</svg>
